HIERARCHY
ROOT joint_Root
{
	OFFSET 0.0 0.0 0.0
	CHANNELS 6 Xposition Yposition Zposition Zrotation Xrotation Yrotation 
	JOINT Hips
	{
		OFFSET 4.5925 91.4895 -427.239
		CHANNELS 6 Xposition Yposition Zposition Zrotation Xrotation Yrotation 
		JOINT Spine
		{
			OFFSET 15.7357 0.0 0.0
			CHANNELS 6 Xposition Yposition Zposition Zrotation Xrotation Yrotation 
			JOINT Chest
			{
				OFFSET 8.98455 -0.406207 0.0
				CHANNELS 6 Xposition Yposition Zposition Zrotation Xrotation Yrotation 
				JOINT Neck
				{
					OFFSET 16.3773 0.0 0.0
					CHANNELS 6 Xposition Yposition Zposition Zrotation Xrotation Yrotation 
					JOINT Head
					{
						OFFSET 6.45672 0.0 0.0
						CHANNELS 6 Xposition Yposition Zposition Zrotation Xrotation Yrotation 
						End Site
						{
							OFFSET 0.0 0.0 0.0
						}
					}
				}
				JOINT Shoulder_L
				{
					OFFSET 12.9942 -0.242716 4.98039
					CHANNELS 6 Xposition Yposition Zposition Zrotation Xrotation Yrotation 
					JOINT UpperArm_L
					{
						OFFSET 5.34809 0.0 0.0
						CHANNELS 6 Xposition Yposition Zposition Zrotation Xrotation Yrotation 
						JOINT LowerArm_L
						{
							OFFSET 24.3286 1.87007e-05 0.0
							CHANNELS 6 Xposition Yposition Zposition Zrotation Xrotation Yrotation 
							JOINT Hand_L
							{
								OFFSET 22.2916 0.0 0.0
								CHANNELS 6 Xposition Yposition Zposition Zrotation Xrotation Yrotation 
								End Site
								{
									OFFSET 0.0 0.0 0.0
								}
							}
						}
					}
				}
				JOINT Shoulder_R
				{
					OFFSET 12.9945 -0.242716 -4.98039
					CHANNELS 6 Xposition Yposition Zposition Zrotation Xrotation Yrotation 
					JOINT UpperArm_R
					{
						OFFSET -5.34813 0.0 0.0
						CHANNELS 6 Xposition Yposition Zposition Zrotation Xrotation Yrotation 
						JOINT LowerArm_R
						{
							OFFSET -24.3289 0.000322201 0.0
							CHANNELS 6 Xposition Yposition Zposition Zrotation Xrotation Yrotation 
							JOINT Hand_R
							{
								OFFSET -22.2915 -0.000108084 0.0
								CHANNELS 6 Xposition Yposition Zposition Zrotation Xrotation Yrotation 
								End Site
								{
									OFFSET 0.0 0.0 0.0
								}
							}
						}
					}
				}
			}
		}
		JOINT UpperLeg_L
		{
			OFFSET -2.19248 -6.46944 0.0
			CHANNELS 6 Xposition Yposition Zposition Zrotation Xrotation Yrotation 
			JOINT LowerLeg_L
			{
				OFFSET 39.0811 0.0 -1.23785e-05
				CHANNELS 6 Xposition Yposition Zposition Zrotation Xrotation Yrotation 
				JOINT Foot_L
				{
					OFFSET 40.9854 0.0 -1.26872e-05
					CHANNELS 6 Xposition Yposition Zposition Zrotation Xrotation Yrotation 
					JOINT Toes_L
					{
						OFFSET 11.7543 0.0 0.0
						CHANNELS 6 Xposition Yposition Zposition Zrotation Xrotation Yrotation 
						End Site
						{
							OFFSET 0.0 0.0 0.0
						}
					}
				}
			}
		}
		JOINT UpperLeg_R
		{
			OFFSET -2.19251 6.46944 0.0
			CHANNELS 6 Xposition Yposition Zposition Zrotation Xrotation Yrotation 
			JOINT LowerLeg_R
			{
				OFFSET -39.0811 -0.00228153 -0.0401928
				CHANNELS 6 Xposition Yposition Zposition Zrotation Xrotation Yrotation 
				JOINT Foot_R
				{
					OFFSET -40.9854 0.0 0.0
					CHANNELS 6 Xposition Yposition Zposition Zrotation Xrotation Yrotation 
					JOINT Toes_R
					{
						OFFSET -11.7543 0.0 0.0
						CHANNELS 6 Xposition Yposition Zposition Zrotation Xrotation Yrotation 
						End Site
						{
							OFFSET 0.0 0.0 0.0
						}
					}
				}
			}
		}
	}
}
MOTION
Frames:	4
Frame Time:	0.0333333
0.000000 0.000000 0.000000 0.000000 0.000000 -0.000000 120.351000 90.477300 125.773000 97.292200 -21.565700 5.323640 15.735700 0.000005 -0.000001 99.414500 84.563400 -99.952000 8.984550 -0.406207 -0.000000 2.970680 1.799310 -1.120490 16.377300 -0.000001 -0.000001 -0.412707 -12.961400 2.990150 6.456720 -0.000001 -0.000000 -1.972850 -18.740500 6.930900 12.994200 -0.242716 4.980390 -91.436600 4.452780 -72.098200 5.348090 -0.000007 -0.000001 -68.371500 39.020600 -8.925690 24.328600 0.000019 0.000005 7.401540 27.061300 -15.949500 22.291600 -0.000001 0.000005 3.976420 5.277790 0.693077 12.994500 -0.242716 -4.980390 88.844000 8.816630 -82.500200 -5.348130 -0.000001 -0.000004 -61.526200 33.724200 -23.732700 -24.328900 0.000322 -0.000009 0.295356 0.498503 -30.747900 -22.291500 -0.000108 -0.000004 16.052800 5.405620 -3.120100 -2.192480 -6.469440 -0.000000 -178.167000 1.880260 -20.057500 39.081100 -0.000007 -0.000012 -0.011378 0.009930 48.898000 40.985400 -0.000006 -0.000013 4.185360 -8.969980 -61.436200 11.754300 -0.000000 0.000003 -0.005840 -0.069383 -19.400400 -2.192510 6.469440 -0.000001 -176.386000 6.921880 179.376000 -39.081100 -0.002282 -0.040193 0.048643 -0.074887 31.194500 -40.985400 0.000008 0.000006 25.196800 11.490000 -70.661300 -11.754300 -0.000006 -0.000006 -0.019247 -0.163084 -23.234700
0.000000 0.000000 0.000000 0.000000 0.000000 -0.000000 119.499000 90.645000 128.215000 97.382800 -26.723800 4.421490 15.735700 0.000005 -0.000001 100.719000 84.709600 -101.286000 8.984550 -0.406207 -0.000000 2.641780 1.991520 -1.179040 16.377300 -0.000001 -0.000001 -1.205730 -12.524900 2.782120 6.456720 -0.000001 -0.000000 -2.715710 -18.458600 7.303260 12.994200 -0.242716 4.980390 -91.299800 4.007730 -72.014000 5.348090 -0.000007 -0.000001 -72.963000 34.716000 -3.052920 24.328600 0.000019 0.000005 4.071400 33.225600 -7.405760 22.291600 -0.000001 0.000005 2.995320 5.193670 2.879530 12.994500 -0.242716 -4.980390 89.008900 8.188230 -83.074400 -5.348130 -0.000001 -0.000004 -58.495000 37.298200 -29.531200 -24.328900 0.000322 -0.000009 0.656463 0.869493 -37.057200 -22.291500 -0.000108 -0.000004 16.795300 5.419770 -3.591300 -2.192480 -6.469440 -0.000000 -177.670000 1.799710 -21.178200 39.081100 -0.000007 -0.000012 0.004923 -0.006051 39.118500 40.985400 -0.000006 -0.000013 2.582460 -5.864060 -61.040700 11.754300 -0.000000 0.000003 -0.005524 -0.066455 -19.281100 -2.192510 6.469440 -0.000001 -177.057000 4.840000 -179.775000 -39.081100 -0.002282 -0.040193 0.036564 -0.055918 30.746800 -40.985400 0.000008 0.000006 26.088800 14.475000 -70.908000 -11.754300 -0.000006 -0.000006 -0.025371 -0.195405 -24.568300
0.000000 0.000000 0.000000 0.000000 0.000000 -0.000000 118.493000 90.504800 130.831000 97.235000 -31.149200 3.626790 15.735700 0.000005 -0.000001 101.795000 84.800700 -102.345000 8.984550 -0.406207 -0.000000 2.425200 2.149530 -1.143780 16.377300 -0.000001 -0.000001 -1.859450 -12.396800 2.673160 6.456720 -0.000001 -0.000000 -3.413210 -18.517200 7.742010 12.994200 -0.242716 4.980390 -91.005000 3.109250 -72.078400 5.348090 -0.000007 -0.000001 -76.576900 28.023400 1.975380 24.328600 0.000019 0.000005 0.259256 34.721600 -0.454720 22.291600 -0.000001 0.000005 3.434750 5.087540 5.393650 12.994500 -0.242716 -4.980390 89.092800 7.784850 -83.332500 -5.348130 -0.000001 -0.000004 -55.450000 39.859400 -34.451500 -24.328900 0.000322 -0.000009 1.271890 1.335810 -43.607400 -22.291500 -0.000108 -0.000004 17.542300 5.429470 -3.920410 -2.192480 -6.469440 -0.000000 -177.385000 0.729263 -22.094100 39.081100 -0.000007 -0.000012 0.002112 -0.003656 30.011600 40.985400 -0.000006 -0.000013 0.933901 -1.648810 -61.535800 11.754300 -0.000000 0.000003 -0.005873 -0.069682 -19.412600 -2.192510 6.469440 -0.000001 -177.459000 2.581420 -178.953000 -39.081100 -0.002282 -0.040193 0.032007 -0.047794 30.990500 -40.985400 0.000008 0.000006 26.721100 16.110300 -71.228700 -11.754300 -0.000006 -0.000006 -0.036055 -0.243986 -26.584900
0.000000 0.000000 0.000000 0.000000 0.000000 -0.000000 117.281000 90.101500 133.791000 97.188900 -34.428200 3.268760 15.735700 0.000005 -0.000001 101.961000 84.807500 -102.516000 8.984550 -0.406207 -0.000000 2.405860 2.176480 -1.155200 16.377300 -0.000001 -0.000001 -2.332030 -12.595100 2.516850 6.456720 -0.000001 -0.000000 -4.005470 -18.986500 8.244180 12.994200 -0.242716 4.980390 -90.753200 2.358430 -72.284000 5.348090 -0.000007 -0.000001 -78.182700 21.562800 5.919480 24.328600 0.000019 0.000005 0.000568 33.108500 -0.000004 22.291600 -0.000001 0.000005 3.488150 5.021040 6.869910 12.994500 -0.242716 -4.980390 89.113600 7.635880 -83.358900 -5.348130 -0.000001 -0.000004 -53.295000 41.232300 -37.391400 -24.328900 0.000322 -0.000009 2.179060 1.809210 -50.324800 -22.291500 -0.000108 -0.000004 18.011200 5.436390 -4.159860 -2.192480 -6.469440 -0.000000 -178.540000 -3.868800 -23.218500 39.081100 -0.000007 -0.000012 -0.109406 0.255576 23.174800 40.985400 -0.000006 -0.000013 -4.622560 5.061020 -61.164800 11.754300 -0.000000 0.000003 -0.005603 -0.067195 -19.311200 -2.192510 6.469440 -0.000001 -178.073000 0.981990 -177.712000 -39.081100 -0.002282 -0.040193 0.032398 -0.047034 31.744600 -40.985400 0.000008 0.000006 27.588800 17.164700 -71.915700 -11.754300 -0.000006 -0.000006 -0.046915 -0.286584 -28.367100
